<svg width="800" height="800" viewBox="0 0 800 800" fill="none" xmlns="http://www.w3.org/2000/svg">
<path d="M111.879 383.813C246.05 517.871 402.83 674.574 402.83 674.574L444.456 632.977C444.456 632.977 258.073 447.606 167.475 357.071C76.8755 266.535 218.932 130.229 306.71 217.946C394.489 305.663 583.215 493.412 583.215 493.412L663.798 412.172C751.016 325.012 741.316 224.742 687.278 168.501C632.571 111.565 532.43 99.7451 442.606 191.135L484.23 232.731C602.631 114.414 737.915 249.601 622.519 370.923L582.742 410.672C582.742 410.672 458.708 286.537 333.887 161.975C209.066 37.4127 -22.291 249.756 111.879 383.813Z" fill="#FF7BB5"/>
</svg>
