<svg width="552" height="471" viewBox="0 0 552 471" fill="none" xmlns="http://www.w3.org/2000/svg">
<path fill-rule="evenodd" clip-rule="evenodd" d="M409.837 0.243941C398.752 1.25889 393.748 2.02633 386.159 3.87233C382.536 4.75316 375.681 6.76647 374.381 7.32926C374.112 7.4468 373.449 7.67495 372.909 7.83812C372.37 7.9999 371.817 8.21009 371.683 8.30411C371.548 8.39952 370.72 8.73139 369.843 9.04113C368.966 9.35225 367.806 9.80442 367.266 10.0464C366.726 10.2898 365.456 10.836 364.444 11.2619C360.95 12.7304 354.45 16.0545 349.845 18.7261C348.391 19.5709 340.134 25.0191 339.765 25.3786C339.619 25.521 339.196 25.8584 338.826 26.128C337.506 27.0932 332.258 31.2097 331.832 31.6149C331.595 31.8403 330.692 32.6284 329.828 33.3668C328.962 34.1039 323.255 39.6861 317.146 45.7703L306.041 56.8352L323.894 74.7145C333.713 84.5487 341.825 92.5674 341.921 92.5342C342.016 92.4997 346.93 87.6627 352.84 81.7832C362.043 72.6306 367.141 67.8932 368.825 66.9336C369.047 66.8078 369.375 66.5589 369.553 66.3805C369.732 66.2035 369.973 66.0583 370.087 66.0583C370.203 66.0583 370.448 65.92 370.628 65.75C371.504 64.9383 375.63 62.3414 378.43 60.8397C379.442 60.2977 380.547 59.7045 380.884 59.522C387.021 56.2005 397.173 52.9358 404.93 51.7867C406.751 51.5171 408.408 51.2474 408.61 51.1866C412.611 49.985 428.71 50.9377 437.441 52.8916C440.376 53.5484 447.643 55.8839 449.068 56.6278C449.42 56.8131 449.797 56.9638 449.906 56.9652C451.167 56.9749 460.574 62.0787 465.871 65.6269C466.467 66.0279 469.502 68.3205 469.856 68.6372C470.006 68.7727 470.606 69.2705 471.188 69.7434C472.22 70.5814 473.362 71.5949 476.054 74.0632C481.808 79.3384 488.459 88.3776 492.401 96.2801C496.803 105.106 498.992 111.976 500.623 122.081C502.956 136.544 500.381 154.705 494.076 168.249C493.737 168.978 493.253 170.027 493.003 170.583C492.544 171.601 490.796 174.856 489.927 176.311C488.933 177.977 487.522 180.199 487.382 180.315C487.304 180.383 487.03 180.77 486.777 181.175C486.188 182.118 482.809 186.597 481.957 187.565C481.599 187.97 480.723 188.965 480.009 189.776C479.295 190.587 466.408 203.571 451.373 218.629L424.036 246.008L419.326 241.297C416.736 238.706 414.519 236.584 414.401 236.584C414.282 236.584 370.851 193.212 317.888 140.202C264.924 87.1926 221.408 43.6491 221.187 43.4389C220.272 42.5747 216.678 39.6958 214.036 37.7115C212.484 36.5458 211.105 35.506 210.969 35.4009C210.834 35.2958 209.51 34.4122 208.024 33.4374C206.54 32.4625 205.192 31.5526 205.029 31.4157C204.866 31.2775 204.681 31.1655 204.618 31.1655C204.554 31.1655 203.603 30.6124 202.504 29.9376C201.405 29.2614 200.467 28.7083 200.422 28.7083C200.375 28.7083 199.263 28.0999 197.95 27.3559C195.839 26.1571 190.672 23.5644 188.273 22.4983C184.722 20.9205 178.874 18.6348 178.39 18.6348C178.212 18.6348 177.96 18.5394 177.833 18.4246C177.705 18.3085 176.44 17.8591 175.023 17.4249C173.607 16.9907 172.171 16.5357 171.834 16.4154C171.208 16.1914 168.601 15.5125 165.086 14.6566C160.121 13.448 154.045 12.3999 149.015 11.8813C147.058 11.6795 144.442 11.4029 143.202 11.266C140.272 10.9424 127.517 10.9424 124.355 11.2646C112.193 12.5064 108.104 13.1798 99.9293 15.2857C94.0996 16.7888 85.7182 19.629 81.4171 21.5607C80.8772 21.8027 79.9382 22.2079 79.3307 22.4609C70.2217 26.2525 56.4428 34.8423 48.1705 41.8861C44.3761 45.1162 42.5603 46.7935 39.1954 50.1758C33.9608 55.4359 30.6027 59.2814 26.7434 64.4349C20.5396 72.7205 14.9736 82.2588 11.2427 90.998C11.0687 91.4031 10.6545 92.3434 10.3217 93.0859C9.98758 93.8299 9.46012 95.1573 9.14944 96.0354C8.83738 96.9135 8.50323 97.7431 8.4052 97.8786C8.30716 98.0128 8.11247 98.5106 7.97301 98.9835C7.83355 99.4564 7.39446 100.784 6.99955 101.933C6.60327 103.081 5.98053 105.017 5.61601 106.232C5.25148 107.449 4.79444 108.964 4.59975 109.6C3.55863 113.01 1.84646 121.625 1.1892 126.75C0.990369 128.304 0.714212 130.404 0.574753 131.418C-0.191584 137.029 -0.191584 152.837 0.574753 158.447C0.714212 159.46 0.990369 161.562 1.1892 163.116C2.09086 170.148 3.76851 177.793 5.93359 184.739C6.20836 185.617 6.6157 186.944 6.84076 187.687C7.06583 188.431 7.34751 189.144 7.46764 189.273C7.58777 189.4 7.68442 189.653 7.68442 189.833C7.68442 190.162 9.64376 195.343 10.6352 197.639C11.2551 199.073 12.4399 201.609 14.0236 204.887C15.8242 208.615 20.7632 217.132 22.463 219.439C22.6342 219.672 23.2721 220.593 23.8783 221.486C24.4858 222.378 25.4248 223.693 25.9647 224.405C26.5046 225.118 27.1673 226.002 27.4366 226.37C28.2747 227.512 31.1316 231.07 31.6273 231.588C31.8869 231.859 32.7029 232.791 33.4402 233.657C35.8497 236.488 64.1048 264.884 64.6792 265.053C64.8435 265.101 111.241 311.459 167.785 368.071L270.593 471L288.32 453.245L306.048 435.492L225.919 355.266C121.338 250.556 71.8675 200.749 69.2358 197.516C64.664 191.899 60.0149 184.309 57.5736 178.473C57.234 177.662 56.8059 176.668 56.6223 176.261C56.1293 175.173 55.1365 172.299 53.84 168.209C50.4308 157.455 49.6921 141.154 52.0657 129.084C53.5376 121.597 55.6447 115.296 58.9669 108.444C61.2093 103.819 63.5069 100.019 66.7545 95.5666C73.7413 85.9909 83.6954 77.3251 94.2736 71.6101C95.9236 70.7182 97.3155 69.9895 97.3665 69.9895C97.4176 69.9895 98.398 69.547 99.544 69.0064C100.691 68.4657 101.719 68.0232 101.828 68.0218C101.938 68.0205 102.319 67.8684 102.674 67.6817C111.009 63.3273 131.069 60.5521 142.88 62.1188C150.219 63.0936 158.189 64.9424 161.896 66.5312C162.167 66.646 163.325 67.0954 164.473 67.5268C166.726 68.3772 174.134 72.0001 176.128 73.228C186.978 79.9068 172.679 65.9629 325.184 218.586L423.946 317.427L471.941 269.327C518.884 222.281 521.624 219.453 525.732 213.856C526.624 212.64 527.442 211.534 527.548 211.399C528.234 210.532 531.293 205.83 531.293 205.646C531.293 205.522 531.375 205.384 531.476 205.338C531.667 205.254 532.87 203.358 533.937 201.461C534.275 200.859 534.847 199.865 535.207 199.25C535.939 198.001 540.083 189.689 540.544 188.544C540.705 188.14 541.341 186.629 541.954 185.184C542.568 183.74 543.069 182.485 543.069 182.396C543.069 182.306 543.223 181.885 543.41 181.459C543.597 181.033 544.102 179.634 544.533 178.35C544.964 177.066 545.402 175.85 545.505 175.647C545.609 175.445 545.835 174.671 546.009 173.927C546.182 173.184 546.418 172.393 546.532 172.169C547.444 170.398 550.019 158.329 550.798 152.181C551.002 150.559 551.275 148.514 551.405 147.636C552.196 142.248 552.199 126.711 551.408 120.484C550.378 112.367 549.969 109.693 549.324 106.847C549.124 105.968 548.738 104.255 548.463 103.038C547.491 98.7221 544.476 88.7468 543.562 86.8206C543.434 86.551 543.054 85.5803 542.717 84.6649C542.382 83.7509 541.947 82.6447 541.751 82.2077C541.555 81.7721 540.984 80.4751 540.482 79.326C538.071 73.8143 532.222 62.9872 531.478 62.6581C531.376 62.6138 531.293 62.4756 531.293 62.3511C531.293 62.1686 528.295 57.5584 527.552 56.5974C527.449 56.4619 526.51 55.1911 525.467 53.7724C523.672 51.329 523.152 50.6473 522.581 49.9974C522.447 49.8439 521.508 48.7225 520.496 47.5071C515.514 41.5252 507.876 34.09 501.726 29.2379C500.511 28.2796 499.408 27.4071 499.272 27.2992C498.237 26.4737 493.466 23.0527 493.008 22.808C492.691 22.6379 492.316 22.3973 492.172 22.2729C489.841 20.2457 479.106 14.3842 471.853 11.1775C471.347 10.9549 470.574 10.612 470.135 10.4184C467.114 9.07985 462.697 7.48551 456.947 5.66026C454.529 4.89282 447.935 3.22796 445.495 2.77026C444.303 2.54764 443.109 2.31395 442.838 2.25173C440.452 1.69862 432.761 0.762481 426.154 0.219052C422.48 -0.0837753 413.256 -0.0699481 409.837 0.243941Z" fill="#FC7CB4"/>
</svg>
