<svg width="800" height="800" viewBox="0 0 800 800" fill="none" xmlns="http://www.w3.org/2000/svg">
<path fill-rule="evenodd" clip-rule="evenodd" d="M533.837 164.244C522.752 165.259 517.748 166.026 510.159 167.872C506.536 168.753 499.681 170.766 498.381 171.329C498.112 171.447 497.449 171.675 496.909 171.838C496.37 172 495.817 172.21 495.683 172.304C495.548 172.4 494.72 172.731 493.843 173.041C492.966 173.352 491.806 173.804 491.266 174.046C490.726 174.29 489.456 174.836 488.444 175.262C484.95 176.73 478.45 180.055 473.845 182.726C472.391 183.571 464.134 189.019 463.765 189.379C463.619 189.521 463.196 189.858 462.826 190.128C461.506 191.093 456.258 195.21 455.832 195.615C455.595 195.84 454.692 196.628 453.828 197.367C452.962 198.104 447.255 203.686 441.146 209.77L430.041 220.835L447.894 238.714C457.713 248.549 465.825 256.567 465.921 256.534C466.016 256.5 470.93 251.663 476.84 245.783C486.043 236.631 491.141 231.893 492.825 230.934C493.047 230.808 493.375 230.559 493.553 230.38C493.732 230.203 493.973 230.058 494.087 230.058C494.203 230.058 494.448 229.92 494.628 229.75C495.504 228.938 499.63 226.341 502.43 224.84C503.442 224.298 504.547 223.704 504.884 223.522C511.021 220.201 521.173 216.936 528.93 215.787C530.751 215.517 532.408 215.247 532.61 215.187C536.611 213.985 552.71 214.938 561.441 216.892C564.376 217.548 571.643 219.884 573.068 220.628C573.42 220.813 573.797 220.964 573.906 220.965C575.167 220.975 584.574 226.079 589.871 229.627C590.467 230.028 593.502 232.321 593.856 232.637C594.006 232.773 594.606 233.27 595.188 233.743C596.22 234.581 597.362 235.595 600.054 238.063C605.808 243.338 612.459 252.378 616.401 260.28C620.803 269.106 622.992 275.976 624.623 286.081C626.956 300.544 624.381 318.705 618.076 332.249C617.737 332.978 617.253 334.027 617.003 334.583C616.544 335.601 614.796 338.856 613.927 340.311C612.933 341.977 611.522 344.199 611.382 344.315C611.304 344.383 611.03 344.77 610.777 345.175C610.188 346.118 606.809 350.597 605.957 351.565C605.599 351.97 604.723 352.965 604.009 353.776C603.295 354.587 590.408 367.571 575.373 382.629L548.036 410.008L543.326 405.297C540.736 402.706 538.519 400.584 538.401 400.584C538.282 400.584 494.851 357.212 441.888 304.202C388.924 251.193 345.408 207.649 345.187 207.439C344.272 206.575 340.678 203.696 338.036 201.712C336.484 200.546 335.105 199.506 334.969 199.401C334.834 199.296 333.51 198.412 332.024 197.437C330.54 196.463 329.192 195.553 329.029 195.416C328.866 195.277 328.681 195.165 328.618 195.165C328.554 195.165 327.603 194.612 326.504 193.938C325.405 193.261 324.467 192.708 324.422 192.708C324.375 192.708 323.263 192.1 321.95 191.356C319.839 190.157 314.672 187.564 312.273 186.498C308.722 184.921 302.874 182.635 302.39 182.635C302.212 182.635 301.96 182.539 301.833 182.425C301.705 182.308 300.44 181.859 299.023 181.425C297.607 180.991 296.171 180.536 295.834 180.415C295.208 180.191 292.601 179.513 289.086 178.657C284.121 177.448 278.045 176.4 273.015 175.881C271.058 175.679 268.442 175.403 267.202 175.266C264.272 174.942 251.517 174.942 248.355 175.265C236.193 176.506 232.104 177.18 223.929 179.286C218.1 180.789 209.718 183.629 205.417 185.561C204.877 185.803 203.938 186.208 203.331 186.461C194.222 190.252 180.443 198.842 172.17 205.886C168.376 209.116 166.56 210.794 163.195 214.176C157.961 219.436 154.603 223.281 150.743 228.435C144.54 236.721 138.974 246.259 135.243 254.998C135.069 255.403 134.654 256.343 134.322 257.086C133.988 257.83 133.46 259.157 133.149 260.035C132.837 260.913 132.503 261.743 132.405 261.879C132.307 262.013 132.112 262.511 131.973 262.983C131.834 263.456 131.394 264.784 131 265.933C130.603 267.081 129.981 269.017 129.616 270.232C129.251 271.449 128.794 272.964 128.6 273.6C127.559 277.01 125.846 285.625 125.189 290.75C124.99 292.304 124.714 294.404 124.575 295.418C123.808 301.029 123.808 316.837 124.575 322.447C124.714 323.46 124.99 325.562 125.189 327.116C126.091 334.148 127.769 341.793 129.934 348.739C130.208 349.617 130.616 350.944 130.841 351.687C131.066 352.431 131.348 353.144 131.468 353.273C131.588 353.4 131.684 353.653 131.684 353.833C131.684 354.162 133.644 359.343 134.635 361.639C135.255 363.073 136.44 365.609 138.024 368.887C139.824 372.615 144.763 381.132 146.463 383.439C146.634 383.672 147.272 384.593 147.878 385.486C148.486 386.378 149.425 387.693 149.965 388.405C150.505 389.118 151.167 390.002 151.437 390.37C152.275 391.512 155.132 395.07 155.627 395.588C155.887 395.859 156.703 396.791 157.44 397.657C159.85 400.488 188.105 428.884 188.679 429.053C188.843 429.101 235.241 475.459 291.785 532.071L394.593 635L412.32 617.245L430.048 599.492L349.919 519.266C245.338 414.556 195.868 364.749 193.236 361.516C188.664 355.899 184.015 348.309 181.574 342.473C181.234 341.662 180.806 340.668 180.622 340.261C180.129 339.173 179.137 336.299 177.84 332.209C174.431 321.455 173.692 305.154 176.066 293.084C177.538 285.597 179.645 279.296 182.967 272.444C185.209 267.819 187.507 264.019 190.754 259.567C197.741 249.991 207.695 241.325 218.274 235.61C219.924 234.718 221.315 233.99 221.367 233.99C221.418 233.99 222.398 233.547 223.544 233.006C224.691 232.466 225.719 232.023 225.828 232.022C225.938 232.02 226.319 231.868 226.674 231.682C235.009 227.327 255.069 224.552 266.88 226.119C274.219 227.094 282.189 228.942 285.896 230.531C286.167 230.646 287.325 231.095 288.473 231.527C290.726 232.377 298.134 236 300.128 237.228C310.978 243.907 296.679 229.963 449.184 382.586L547.946 481.427L595.941 433.327C642.884 386.281 645.624 383.453 649.732 377.856C650.624 376.64 651.442 375.534 651.548 375.399C652.234 374.532 655.293 369.83 655.293 369.646C655.293 369.522 655.375 369.384 655.476 369.338C655.667 369.254 656.87 367.358 657.937 365.461C658.275 364.859 658.847 363.865 659.207 363.25C659.939 362.001 664.083 353.689 664.544 352.544C664.705 352.14 665.341 350.629 665.954 349.184C666.568 347.74 667.069 346.485 667.069 346.396C667.069 346.306 667.223 345.885 667.41 345.459C667.597 345.033 668.102 343.634 668.533 342.35C668.964 341.066 669.402 339.85 669.505 339.647C669.609 339.445 669.835 338.671 670.009 337.927C670.182 337.184 670.418 336.393 670.532 336.169C671.444 334.398 674.019 322.329 674.798 316.181C675.002 314.559 675.275 312.514 675.405 311.636C676.196 306.248 676.199 290.711 675.408 284.484C674.378 276.367 673.969 273.693 673.324 270.847C673.124 269.968 672.738 268.255 672.463 267.038C671.491 262.722 668.476 252.747 667.562 250.821C667.434 250.551 667.054 249.58 666.717 248.665C666.382 247.751 665.947 246.645 665.751 246.208C665.555 245.772 664.984 244.475 664.482 243.326C662.071 237.814 656.222 226.987 655.478 226.658C655.376 226.614 655.293 226.476 655.293 226.351C655.293 226.169 652.295 221.558 651.552 220.597C651.449 220.462 650.51 219.191 649.467 217.772C647.672 215.329 647.152 214.647 646.581 213.997C646.447 213.844 645.508 212.723 644.496 211.507C639.514 205.525 631.876 198.09 625.726 193.238C624.511 192.28 623.408 191.407 623.272 191.299C622.237 190.474 617.466 187.053 617.008 186.808C616.691 186.638 616.316 186.397 616.172 186.273C613.841 184.246 603.106 178.384 595.853 175.178C595.347 174.955 594.574 174.612 594.135 174.418C591.114 173.08 586.697 171.486 580.947 169.66C578.529 168.893 571.935 167.228 569.495 166.77C568.303 166.548 567.109 166.314 566.838 166.252C564.452 165.699 556.761 164.762 550.154 164.219C546.48 163.916 537.256 163.93 533.837 164.244Z" fill="#FC7CB4"/>
</svg>
