<svg width="1006" height="843" viewBox="0 0 1006 843" fill="none" xmlns="http://www.w3.org/2000/svg">
<path d="M62.5 397.5C267.63 602.601 507.327 842.348 507.327 842.348L570.968 778.707C570.968 778.707 286.012 495.1 147.498 356.586C8.98323 218.071 226.17 9.52966 360.372 143.732C494.575 277.935 783.114 565.18 783.114 565.18L906.314 440.888C1039.66 307.538 1024.83 154.13 942.213 68.0844C858.573 -19.0247 705.47 -37.1087 568.139 102.713L631.778 166.353C812.798 -14.6667 1019.63 192.162 843.204 377.778L782.39 438.592C782.39 438.592 592.758 248.672 401.922 58.0996C211.086 -132.474 -142.63 192.399 62.5 397.5Z" fill="#FF7BB5"/>
</svg>
